<svg width="23" height="23" viewBox="0 0 23 23" fill="none" xmlns="http://www.w3.org/2000/svg">
<path fill-rule="evenodd" clip-rule="evenodd" d="M8.83919 4.41969C6.39833 4.41969 4.41962 6.3984 4.41962 8.83927C4.41962 11.2801 6.39833 13.2589 8.83919 13.2589C11.28 13.2589 13.2588 11.2801 13.2588 8.83927C13.2588 6.3984 11.28 4.41969 8.83919 4.41969ZM2.20984 8.83927C2.20984 5.17797 5.1779 2.2099 8.83919 2.2099C12.5005 2.2099 15.4685 5.17797 15.4685 8.83927C15.4685 10.271 15.0147 11.5968 14.2429 12.6805L19.5645 18.002C19.996 18.4335 19.996 19.1331 19.5645 19.5646C19.133 19.9961 18.4334 19.9961 18.0019 19.5646L12.6804 14.243C11.5967 15.0148 10.2709 15.4686 8.83919 15.4686C5.1779 15.4686 2.20984 12.5006 2.20984 8.83927Z" fill="#9CA3AF"/>
</svg>
