<svg width="27" height="28" viewBox="0 0 27 28" fill="none" xmlns="http://www.w3.org/2000/svg">
<path d="M0 16.7066C0 15.3746 0.262545 14.0556 0.772679 12.825C1.28282 11.5944 2.03051 10.4762 2.9731 9.53433C3.9157 8.59245 5.03468 7.8453 6.26621 7.33555C7.49781 6.82587 8.81777 6.56348 10.1508 6.56348V16.7066H0Z" fill="#00A4F4"/>
<path d="M0 16.7063C0 18.1167 0.262545 19.5132 0.772679 20.8163C1.28282 22.1193 2.03051 23.3032 2.9731 24.3005C3.9157 25.2977 5.03468 26.0888 6.26621 26.6286C7.49781 27.1683 8.81777 27.4461 10.1508 27.4461V16.7063H0Z" fill="#2CBEFF"/>
<path d="M20.3017 16.7063C20.3017 18.1167 20.0393 19.5132 19.5293 20.8163C19.0191 22.1193 18.2714 23.3032 17.3287 24.3005C16.3861 25.2977 15.267 26.0888 14.0354 26.6286C12.8039 27.1683 11.4839 27.4461 10.1509 27.4461V16.7063H20.3017Z" fill="#75D4FF"/>
<path d="M26.8699 7.75649C26.8699 12.0403 23.3944 15.513 19.1074 15.513H11.3451V7.75649C11.3451 3.47271 14.8204 0 19.1074 0C23.3944 0 26.8699 3.47271 26.8699 7.75649Z" fill="#1AB3FA"/>
</svg>
