<svg width="24" height="23" viewBox="0 0 24 23" fill="none" xmlns="http://www.w3.org/2000/svg">
<path d="M11.4787 0.336095C11.6243 -0.111962 12.2581 -0.111961 12.4037 0.336095L14.8892 7.98574C14.9543 8.18611 15.1411 8.32178 15.3518 8.32178H23.3951C23.8662 8.32178 24.0621 8.92463 23.6809 9.20155L17.1737 13.9293C17.0033 14.0531 16.932 14.2726 16.9971 14.473L19.4826 22.1227C19.6282 22.5707 19.1154 22.9433 18.7342 22.6664L12.227 17.9386C12.0566 17.8148 11.8258 17.8148 11.6553 17.9386L5.14816 22.6664C4.76702 22.9433 4.2542 22.5707 4.39979 22.1227L6.8853 14.473C6.95041 14.2726 6.87909 14.0531 6.70864 13.9293L0.201463 9.20155C-0.179676 8.92463 0.016204 8.32178 0.487318 8.32178H8.53063C8.74132 8.32178 8.92804 8.18611 8.99315 7.98574L11.4787 0.336095Z" fill="#FEB62F"/>
</svg>
