<svg width="28" height="29" viewBox="0 0 28 29" fill="none" xmlns="http://www.w3.org/2000/svg">
<path d="M0 17.1672C0 15.7985 0.26979 14.4431 0.793998 13.1786C1.31821 11.914 2.08653 10.7649 3.05514 9.79708C4.02374 8.82922 5.17359 8.06146 6.43911 7.53764C7.70469 7.01389 9.06106 6.74426 10.4309 6.74426V17.1672H0Z" fill="#00A4F4"/>
<path d="M0 17.1672C0 18.6165 0.26979 20.0516 0.793998 21.3906C1.31821 22.7296 2.08653 23.9461 3.05514 24.9709C4.02374 25.9957 5.17359 26.8087 6.43911 27.3633C7.70469 27.9179 9.06106 28.2033 10.4309 28.2033V17.1672H0Z" fill="#2CBEFF"/>
<path d="M20.8618 17.1672C20.8618 18.6165 20.5922 20.0516 20.0681 21.3906C19.5438 22.7296 18.7755 23.9461 17.8067 24.9709C16.8381 25.9957 15.6882 26.8087 14.4226 27.3633C13.1572 27.9179 11.8007 28.2033 10.4309 28.2033V17.1672H20.8618Z" fill="#75D4FF"/>
<path d="M27.6113 7.97051C27.6113 12.3725 24.0399 15.941 19.6346 15.941H11.6581V7.97051C11.6581 3.56853 15.2294 0 19.6346 0C24.0399 0 27.6113 3.56853 27.6113 7.97051Z" fill="#004990"/>
</svg>
