<svg width="1419" height="631" viewBox="0 0 1419 631" fill="none" xmlns="http://www.w3.org/2000/svg">
<path d="M1416.2 2.96256C1353.07 2.96256 1289.82 -5.73615 1233.86 29.1213C1199.03 50.8194 1176.48 84.6491 1156.93 119.908C1132.26 164.383 1115.44 215.942 1076.76 249.163C1038.08 282.383 990.237 302.448 942.885 313.174C885.503 326.173 831.122 288.041 792.396 249.47C744.801 202.068 711.328 137.721 710.534 69.4365C710.27 46.7497 727.576 21.6584 751.773 18.8117C793.576 13.8937 799.674 138.914 800.705 163.3C802.058 195.328 803.92 229.892 793.934 260.857C773.128 325.373 673.436 348.498 658.285 352.028C643.133 355.558 539.936 381.998 439.936 398.498C339.936 414.998 224.408 405.468 124.646 437.89C74.0727 454.327 21.2026 484.944 -11.5331 527.599C-36.6326 560.305 -36.6012 589.917 -40 629.003" stroke="url(#paint0_linear_43_49)" stroke-width="4" stroke-linecap="round" stroke-dasharray="12 12"/>
<defs>
<linearGradient id="paint0_linear_43_49" x1="-39.564" y1="527.998" x2="1367.44" y2="1.99833" gradientUnits="userSpaceOnUse">
<stop stop-color="#00A3F4" stop-opacity="0.42"/>
<stop offset="0.563099" stop-color="#00A4F4" stop-opacity="0.11"/>
<stop offset="0.887261" stop-color="#00A4F4" stop-opacity="0.6"/>
</linearGradient>
</defs>
</svg>
