<svg width="29" height="29" viewBox="0 0 29 29" fill="none" xmlns="http://www.w3.org/2000/svg">
<path d="M0 17.6522C0 16.2448 0.27741 14.8511 0.816427 13.5509C1.35545 12.2505 2.14547 11.0691 3.14144 10.0739C4.1374 9.07867 5.31973 8.28922 6.621 7.75061C7.92233 7.21206 9.31702 6.93481 10.7255 6.93481V17.6522H0Z" fill="#00A4F4"/>
<path d="M0 17.6522C0 19.1425 0.27741 20.6181 0.816427 21.9949C1.35545 23.3717 2.14547 24.6226 3.14144 25.6764C4.1374 26.7301 5.31973 27.566 6.621 28.1363C7.92233 28.7066 9.31702 29 10.7255 29V17.6522H0Z" fill="#2CBEFF"/>
<path d="M21.451 17.6522C21.451 19.1425 21.1738 20.6181 20.6348 21.9949C20.0958 23.3717 19.3058 24.6226 18.3096 25.6764C17.3137 26.7301 16.1313 27.566 14.8299 28.1363C13.5287 28.7066 12.1339 29 10.7255 29V17.6522H21.451Z" fill="#75D4FF"/>
<path d="M28.3912 8.19565C28.3912 12.722 24.7189 16.3913 20.1892 16.3913H11.9874V8.19565C11.9874 3.66933 15.6595 0 20.1892 0C24.7189 0 28.3912 3.66933 28.3912 8.19565Z" fill="#004990"/>
</svg>
