<svg width="46" height="46" viewBox="0 0 46 46" fill="none" xmlns="http://www.w3.org/2000/svg">
<path d="M0 28.0013C0 25.7688 0.440051 23.558 1.29508 21.4955C2.15012 19.4328 3.40332 17.5586 4.9832 15.9799C6.56308 14.4013 8.43859 13.149 10.5028 12.2946C12.567 11.4403 14.7794 11.0005 17.0137 11.0005V28.0013H0Z" fill="#00A4F4"/>
<path d="M0 28.0013C0 30.3653 0.440051 32.706 1.29508 34.89C2.15012 37.074 3.40332 39.0583 4.9832 40.7298C6.56308 42.4014 8.43859 43.7273 10.5028 44.632C12.567 45.5366 14.7794 46.0021 17.0137 46.0021V28.0013H0Z" fill="#2CBEFF"/>
<path d="M34.0274 28.0013C34.0274 30.3653 33.5877 32.706 32.7327 34.89C31.8777 37.074 30.6245 39.0583 29.0443 40.7298C27.4644 42.4014 25.5888 43.7273 23.5245 44.632C21.4604 45.5366 19.2479 46.0021 17.0137 46.0021V28.0013H34.0274Z" fill="#75D4FF"/>
<path d="M45.0364 13.0006C45.0364 20.1806 39.2111 26.0012 32.0258 26.0012H19.0154V13.0006C19.0154 5.82059 24.8404 0 32.0258 0C39.2111 0 45.0364 5.82059 45.0364 13.0006Z" fill="#004990"/>
</svg>
