<svg width="15" height="15" viewBox="0 0 15 15" fill="none" xmlns="http://www.w3.org/2000/svg">
<path d="M14.7656 13.7988L10.8398 9.87305C11.6992 8.79883 12.1387 7.53906 12.1582 6.09375C12.1191 4.375 11.5234 2.93945 10.3711 1.78711C9.21875 0.634766 7.7832 0.0390625 6.06445 0C4.3457 0.0390625 2.91016 0.634766 1.75781 1.78711C0.625 2.93945 0.0390625 4.375 0 6.09375C0.0390625 7.8125 0.634766 9.24805 1.78711 10.4004C2.91992 11.5527 4.3457 12.1484 6.06445 12.1875C7.5293 12.168 8.78906 11.7285 9.84375 10.8691L13.7695 14.7949C13.9453 14.9316 14.1211 15 14.2969 15C14.4922 15 14.6582 14.9316 14.7949 14.7949C15.0684 14.4629 15.0586 14.1309 14.7656 13.7988ZM1.40625 6.09375C1.44531 4.76562 1.9043 3.66211 2.7832 2.7832C3.66211 1.9043 4.76562 1.44531 6.09375 1.40625C7.42188 1.44531 8.52539 1.9043 9.4043 2.7832C10.2832 3.66211 10.7422 4.76562 10.7812 6.09375C10.7422 7.42188 10.2832 8.52539 9.4043 9.4043C8.52539 10.2832 7.42188 10.7422 6.09375 10.7812C4.76562 10.7422 3.66211 10.2832 2.7832 9.4043C1.9043 8.52539 1.44531 7.42188 1.40625 6.09375Z" fill="#000D44"/>
</svg>
