<svg width="12" height="22" viewBox="0 0 12 22" fill="none" xmlns="http://www.w3.org/2000/svg">
<g clip-path="url(#clip0_35_73)">
<path d="M10.995 9.36993L6.14503 14.0168C5.97575 14.1522 5.82339 14.2199 5.68796 14.2199C5.53561 14.2199 5.39171 14.1607 5.25628 14.0422L0.380874 9.36993C0.262375 9.25143 0.203125 9.10754 0.203125 8.93825C0.203125 8.76897 0.262375 8.62508 0.380874 8.50658C0.651731 8.26958 0.939515 8.26958 1.24423 8.50658L5.68796 12.7726L10.1317 8.50658C10.4364 8.26958 10.7242 8.27804 10.995 8.53197C11.1135 8.63354 11.1728 8.76897 11.1728 8.93825C11.1728 9.10754 11.1135 9.25143 10.995 9.36993Z" fill="white"/>
</g>
<defs>
<clipPath id="clip0_35_73">
<rect width="11.376" height="21.1268" fill="white" transform="matrix(1 0 0 -1 0 21.1268)"/>
</clipPath>
</defs>
</svg>
