<svg width="27" height="27" viewBox="0 0 27 27" fill="none" xmlns="http://www.w3.org/2000/svg">
<rect x="0.363429" y="0.363429" width="25.44" height="25.44" rx="12.72" stroke="white" stroke-width="0.726858"/>
<g clip-path="url(#clip0_35_54)">
<path d="M18.8756 16.059L18.3531 18.3532C18.2471 18.7015 18.0124 18.8832 17.649 18.8983C15.7259 18.8832 13.9844 18.4062 12.4247 17.4673C10.865 16.5436 9.62327 15.3019 8.69956 13.7422C7.7607 12.1824 7.2837 10.441 7.26855 8.51787C7.2837 8.15444 7.46541 7.91972 7.8137 7.81372L10.1078 7.29129C10.4713 7.23072 10.7438 7.36701 10.9256 7.70015L11.9704 10.1533C12.0916 10.4864 12.0234 10.7666 11.766 10.9937L10.5621 11.9704C10.9407 12.7579 11.4404 13.462 12.0613 14.0829C12.6821 14.7037 13.3863 15.211 14.1737 15.6047L15.1731 14.3782C15.4003 14.1207 15.6804 14.0526 16.0136 14.1737L18.4667 15.2186C18.7847 15.4155 18.921 15.6956 18.8756 16.059Z" fill="white"/>
</g>
<defs>
<clipPath id="clip0_35_54">
<rect width="11.6297" height="11.6297" fill="white" transform="matrix(1 0 0 -1 7.26855 18.8983)"/>
</clipPath>
</defs>
</svg>
