<svg width="10" height="22" viewBox="0 0 10 22" fill="none" xmlns="http://www.w3.org/2000/svg">
<path d="M4.9992 8.05427C6.39897 8.05427 7.55434 9.20964 7.55434 10.6094C7.55434 12.0314 6.39897 13.1646 4.9992 13.1646C3.5772 13.1646 2.44405 12.0314 2.44405 10.6094C2.44405 9.20964 3.5772 8.05427 4.9992 8.05427ZM4.9992 12.2758C5.91016 12.2758 6.64338 11.5426 6.64338 10.6094C6.64338 9.69845 5.91016 8.96523 4.9992 8.96523C4.06601 8.96523 3.3328 9.69845 3.3328 10.6094C3.3328 11.5426 4.08823 12.2758 4.9992 12.2758ZM8.24312 7.96539C8.24312 8.29867 7.9765 8.5653 7.64322 8.5653C7.30994 8.5653 7.04332 8.29867 7.04332 7.96539C7.04332 7.63211 7.30994 7.36549 7.64322 7.36549C7.9765 7.36549 8.24312 7.63211 8.24312 7.96539ZM9.93174 8.5653C9.97618 9.38739 9.97618 11.8537 9.93174 12.6757C9.8873 13.4756 9.70956 14.1644 9.13187 14.7643C8.55418 15.342 7.84319 15.5197 7.04332 15.5642C6.22122 15.6086 3.75495 15.6086 2.93286 15.5642C2.13299 15.5197 1.44421 15.342 0.844307 14.7643C0.266622 14.1644 0.0888728 13.4756 0.0444355 12.6757C-1.8701e-06 11.8537 -1.8701e-06 9.38739 0.0444355 8.5653C0.0888728 7.76542 0.266622 7.05443 0.844307 6.47674C1.44421 5.89906 2.13299 5.72131 2.93286 5.67687C3.75495 5.63243 6.22122 5.63243 7.04332 5.67687C7.84319 5.72131 8.55418 5.89906 9.13187 6.47674C9.70956 7.05443 9.8873 7.76542 9.93174 8.5653ZM8.86525 13.5423C9.13187 12.8979 9.06521 11.3426 9.06521 10.6094C9.06521 9.89842 9.13187 8.34311 8.86525 7.67655C8.6875 7.25439 8.35422 6.8989 7.93206 6.74336C7.2655 6.47674 5.7102 6.5434 4.9992 6.5434C4.26598 6.5434 2.71068 6.47674 2.06633 6.74336C1.62196 6.92111 1.28868 7.25439 1.11093 7.67655C0.844307 8.34311 0.910963 9.89842 0.910963 10.6094C0.910963 11.3426 0.844307 12.8979 1.11093 13.5423C1.28868 13.9867 1.62196 14.3199 2.06633 14.4977C2.71068 14.7643 4.26598 14.6976 4.9992 14.6976C5.7102 14.6976 7.2655 14.7643 7.93206 14.4977C8.35422 14.3199 8.70972 13.9867 8.86525 13.5423Z" fill="white"/>
</svg>
