<svg width="10" height="22" viewBox="0 0 10 22" fill="none" xmlns="http://www.w3.org/2000/svg">
<path d="M2.22187 14.8754H0.155531V8.23202H2.22187V14.8754ZM1.17759 7.34327C0.533248 7.34327 0 6.7878 0 6.12124C0 5.4769 0.533248 4.94365 1.17759 4.94365C1.84415 4.94365 2.3774 5.4769 2.3774 6.12124C2.3774 6.7878 1.84415 7.34327 1.17759 7.34327ZM9.93174 14.8754H7.88763V11.6537C7.88763 10.876 7.86541 9.89842 6.79891 9.89842C5.73242 9.89842 5.57689 10.7205 5.57689 11.587V14.8754H3.51055V8.23202H5.48801V9.14298H5.51023C5.79907 8.63195 6.46563 8.07648 7.46547 8.07648C9.55403 8.07648 9.95396 9.45404 9.95396 11.2315V14.8754H9.93174Z" fill="white"/>
</svg>
