<svg width="27" height="27" viewBox="0 0 27 27" fill="none" xmlns="http://www.w3.org/2000/svg">
<rect x="0.363429" y="0.363429" width="25.44" height="25.44" rx="12.72" stroke="white" stroke-width="0.726858"/>
<g clip-path="url(#clip0_35_65)">
<path d="M12.5383 18.6027C12.1294 18.103 11.6222 17.4291 11.0164 16.5811C10.4259 15.7483 9.90343 14.8851 9.44915 13.9917C8.99486 13.0983 8.75258 12.3108 8.72229 11.6294C8.75258 10.3877 9.17658 9.35797 9.99429 8.54026C10.812 7.72254 11.8417 7.29854 13.0834 7.26825C14.3252 7.29854 15.3549 7.72254 16.1726 8.54026C16.9903 9.35797 17.4143 10.3877 17.4446 11.6294C17.4143 12.3108 17.172 13.0983 16.7177 13.9917C16.2483 14.8851 15.7183 15.7483 15.1277 16.5811C14.5372 17.4291 14.0374 18.103 13.6286 18.6027C13.4772 18.7844 13.2954 18.8753 13.0834 18.8753C12.8714 18.8753 12.6897 18.7844 12.5383 18.6027ZM13.0834 13.0831C13.4923 13.068 13.833 12.9241 14.1056 12.6515C14.3782 12.379 14.522 12.0383 14.5372 11.6294C14.522 11.2205 14.3782 10.8798 14.1056 10.6073C13.833 10.3347 13.4923 10.1908 13.0834 10.1757C12.6746 10.1908 12.3339 10.3347 12.0613 10.6073C11.7887 10.8798 11.6449 11.2205 11.6297 11.6294C11.6449 12.0383 11.7887 12.379 12.0613 12.6515C12.3339 12.9241 12.6746 13.068 13.0834 13.0831Z" fill="white"/>
</g>
<defs>
<clipPath id="clip0_35_65">
<rect width="8.7223" height="11.6297" fill="white" transform="matrix(1 0 0 -1 8.72229 18.8983)"/>
</clipPath>
</defs>
</svg>
