<svg width="27" height="27" viewBox="0 0 27 27" fill="none" xmlns="http://www.w3.org/2000/svg">
<rect x="0.363429" y="0.363429" width="25.44" height="25.44" rx="12.72" stroke="white" stroke-width="0.726858"/>
<g clip-path="url(#clip0_35_61)">
<path d="M13.0834 15.264C12.7049 15.264 12.349 15.1429 12.0158 14.9006L7.26855 11.1982V16.3543C7.2837 16.6572 7.3897 16.9146 7.58656 17.1266C7.79856 17.3235 8.05598 17.4295 8.35884 17.4446H17.808C18.1109 17.4295 18.3683 17.3235 18.5803 17.1266C18.7771 16.9146 18.8831 16.6572 18.8983 16.3543V11.1982L14.151 14.9006C13.8179 15.1429 13.462 15.264 13.0834 15.264ZM7.63198 10.5622L12.4474 14.31C12.6443 14.4615 12.8563 14.5372 13.0834 14.5372C13.3106 14.5372 13.5226 14.4615 13.7194 14.31L18.5349 10.5622C18.762 10.3653 18.8831 10.1155 18.8983 9.8126C18.8831 9.50974 18.7771 9.25231 18.5803 9.04031C18.3683 8.84345 18.1109 8.73745 17.808 8.72231H8.35884C8.05598 8.73745 7.79856 8.84345 7.58656 9.04031C7.3897 9.25231 7.2837 9.50974 7.26855 9.8126C7.26855 10.1155 7.3897 10.3653 7.63198 10.5622Z" fill="white"/>
</g>
<defs>
<clipPath id="clip0_35_61">
<rect width="11.6297" height="11.6297" fill="white" transform="matrix(1 0 0 -1 7.26855 18.8983)"/>
</clipPath>
</defs>
</svg>
