<svg width="12" height="22" viewBox="0 0 12 22" fill="none" xmlns="http://www.w3.org/2000/svg">
<path d="M10.1984 8.29867C10.1984 8.40976 10.1984 8.49864 10.1984 8.60973C10.1984 11.6981 7.86541 15.2309 3.57721 15.2309C2.24409 15.2309 1.02206 14.8532 0 14.1866C0.177749 14.2088 0.355499 14.2311 0.555467 14.2311C1.64418 14.2311 2.64402 13.8533 3.44389 13.2312C2.42183 13.209 1.55531 12.5424 1.26646 11.6093C1.42199 11.6315 1.55531 11.6537 1.71084 11.6537C1.91081 11.6537 2.13299 11.6093 2.31074 11.5648C1.24425 11.3426 0.444373 10.4094 0.444373 9.27629V9.25407C0.755435 9.43182 1.13315 9.5207 1.51087 9.54292C0.866528 9.12076 0.466592 8.40976 0.466592 7.60989C0.466592 7.16552 0.577685 6.76558 0.777653 6.4323C1.93302 7.83208 3.66608 8.76526 5.5991 8.87636C5.55467 8.69861 5.53245 8.52086 5.53245 8.34311C5.53245 7.05443 6.57673 6.01015 7.86541 6.01015C8.53197 6.01015 9.13187 6.27677 9.57625 6.74336C10.0873 6.63227 10.5983 6.4323 11.0427 6.16568C10.8649 6.72115 10.5094 7.16552 10.0206 7.45436C10.4872 7.40992 10.9538 7.27661 11.3537 7.09886C11.0427 7.56546 10.6427 7.96539 10.1984 8.29867Z" fill="white"/>
</svg>
