<svg width="13" height="22" viewBox="0 0 13 22" fill="none" xmlns="http://www.w3.org/2000/svg">
<path d="M12.198 7.69877C12.4647 8.63195 12.4647 10.6316 12.4647 10.6316C12.4647 10.6316 12.4647 12.6091 12.198 13.5645C12.0647 14.0977 11.6426 14.4977 11.1316 14.631C10.1761 14.8754 6.39898 14.8754 6.39898 14.8754C6.39898 14.8754 2.59958 14.8754 1.64418 14.631C1.13315 14.4977 0.710997 14.0977 0.577685 13.5645C0.311061 12.6091 0.311061 10.6316 0.311061 10.6316C0.311061 10.6316 0.311061 8.63195 0.577685 7.69877C0.710997 7.16552 1.13315 6.74336 1.64418 6.61005C2.59958 6.34343 6.39898 6.34343 6.39898 6.34343C6.39898 6.34343 10.1761 6.34343 11.1316 6.61005C11.6426 6.74336 12.0647 7.16552 12.198 7.69877ZM5.15473 12.4313L8.30978 10.6316L5.15473 8.83192V12.4313Z" fill="white"/>
</svg>
