<svg width="73" height="73" viewBox="0 0 73 73" fill="none" xmlns="http://www.w3.org/2000/svg">
<rect width="72.4833" height="72.4833" rx="36.2416" fill="#E6E9EE"/>
<g clip-path="url(#clip0_48_418)">
<g clip-path="url(#clip1_48_418)">
<g clip-path="url(#clip2_48_418)">
<mask id="mask0_48_418" style="mask-type:luminance" maskUnits="userSpaceOnUse" x="13" y="14" width="46" height="46">
<path d="M58.8929 14.4878H13.5908V59.7898H58.8929V14.4878Z" fill="white"/>
</mask>
<g mask="url(#mask0_48_418)">
<path d="M43.7691 18.5066C42.1682 18.5066 40.5812 18.9245 39.2433 19.8043C38.5235 20.277 37.5233 20.6986 36.2417 20.6986C34.9601 20.6986 33.9597 20.277 33.24 19.8043C31.9029 18.9245 30.3152 18.5066 28.7142 18.5066C23.9941 18.5066 20.1667 22.3339 20.1667 27.0541V28.9809C20.1667 34.0685 21.6296 39.0489 24.3806 43.3285C25.945 45.7616 27.1009 48.4345 27.8024 51.241L28.598 54.4231C28.796 55.2151 29.5077 55.7712 30.3246 55.7712C31.2058 55.7712 31.954 55.1268 32.0848 54.255L33.7245 43.3256C33.9115 42.0798 34.982 41.1576 36.2417 41.1576C37.5013 41.1576 38.5718 42.0798 38.7588 43.3256L40.3985 54.255C40.5292 55.1268 41.2775 55.7712 42.1587 55.7712C42.9756 55.7712 43.6872 55.2151 43.8853 54.4231L44.681 51.241C45.3824 48.4345 46.5384 45.7616 48.1027 43.3285C50.2357 40.0112 51.5939 36.2723 52.0967 32.3895L52.2267 25.8133C51.6261 21.6807 48.0684 18.5066 43.7691 18.5066Z" fill="white"/>
<path d="M36.607 38.9656C30.2216 38.9656 24.5099 37.0979 20.6899 34.1606C21.3366 37.4055 22.5744 40.5197 24.3806 43.3284C25.945 45.7616 27.1009 48.4344 27.8024 51.241L28.5981 54.4231C28.7961 55.2151 29.5077 55.7712 30.3247 55.7712C31.2058 55.7712 31.954 55.1267 32.0849 54.255L33.7245 43.3255C33.9115 42.0797 34.982 41.1576 36.2417 41.1576C37.5014 41.1576 38.5719 42.0797 38.7589 43.3255L40.3985 54.255C40.5294 55.1267 41.2776 55.7712 42.1587 55.7712C42.9757 55.7712 43.6873 55.2151 43.8853 54.4231L44.681 51.241C45.3825 48.4344 46.5384 45.7616 48.1028 43.3284C49.7936 40.698 50.989 37.8008 51.6663 34.7787C47.8741 37.3566 42.5313 38.9656 36.607 38.9656Z" fill="#1AB3FA"/>
<path d="M47.202 29.4668C50.4302 29.4668 53.0474 26.8495 53.0474 23.6213C53.0474 26.8495 55.6647 29.4668 58.8928 29.4668C55.6647 29.4668 53.0474 32.084 53.0474 35.3122C53.0474 32.084 50.4302 29.4668 47.202 29.4668Z" fill="#FCD770"/>
<path d="M13.5908 48.4646C16.819 48.4646 19.4362 45.8473 19.4362 42.6191C19.4362 45.8473 22.0535 48.4646 25.2816 48.4646C22.0535 48.4646 19.4362 51.0818 19.4362 54.31C19.4362 51.0818 16.819 48.4646 13.5908 48.4646Z" fill="#FCD770"/>
<path d="M23.8203 28.9809V28.7361H22.359V28.9809C22.359 29.3996 22.37 29.8183 22.3912 30.2348L23.851 30.1602C23.8313 29.7678 23.8203 29.3755 23.8203 28.9809Z" fill="#000D44"/>
<path d="M22.5153 31.7413C22.9332 35.4218 24.2163 39.0188 26.2249 42.1425L27.4539 41.3519C25.5658 38.4153 24.3609 35.0345 23.9671 31.5754L22.5153 31.7413Z" fill="#000D44"/>
<path d="M36.242 22.8909C34.706 22.8909 33.2257 22.4394 31.9602 21.5852L31.1426 22.7967C32.6507 23.8145 34.4137 24.3523 36.242 24.3523C38.0701 24.3523 39.8332 23.8145 41.3421 22.7959L40.5245 21.5845C39.2589 22.4394 37.7779 22.8909 36.242 22.8909Z" fill="#000D44"/>
<path d="M20.1669 42.6189H18.7056C18.7056 45.4386 16.4105 47.7337 13.5908 47.7337V49.195C16.4105 49.195 18.7056 51.4901 18.7056 54.3098H20.1669C20.1669 51.4901 22.462 49.195 25.2816 49.195V47.7337C22.462 47.7337 20.1669 45.4386 20.1669 42.6189ZM19.4362 51.3104C18.8079 50.0901 17.8105 49.0927 16.5903 48.4644C17.8105 47.836 18.8079 46.8386 19.4362 45.6183C20.0646 46.8386 21.062 47.836 22.2822 48.4644C21.062 49.0927 20.0646 50.0901 19.4362 51.3104Z" fill="#000D44"/>
<path d="M53.7781 23.6213H52.3789C50.995 20.1791 47.6075 17.7759 43.7694 17.7759C41.9573 17.7759 40.2533 18.2662 38.8416 19.1927C37.2787 20.2215 35.2057 20.2215 33.6421 19.1927C32.2312 18.2662 30.5272 17.7759 28.7144 17.7759C23.5982 17.7759 19.4363 21.9378 19.4363 27.0541V28.9809C19.4363 34.2198 20.9342 39.317 23.767 43.7237C25.2912 46.0948 26.4106 48.6835 27.0945 51.4178L27.8895 54.5992C28.1686 55.72 29.1703 56.5018 30.3248 56.5018C31.578 56.5018 32.6228 55.6023 32.8077 54.3631L34.4466 43.4337C34.5817 42.5386 35.3366 41.8882 36.2419 41.8882C37.1472 41.8882 37.9019 42.5386 38.0364 43.4337L39.6753 54.3631C39.8609 55.6023 40.9058 56.5018 42.1589 56.5018C43.3134 56.5018 44.3152 55.72 44.5942 54.5992L45.39 51.4178C46.0739 48.6828 47.194 46.0941 48.7182 43.7237C50.3835 41.1328 51.6015 38.2392 52.3139 35.2362C52.3132 35.2617 52.3168 35.2865 52.3168 35.3122H53.7781C53.7781 32.4925 56.0732 30.1974 58.8929 30.1974V28.736C56.0732 28.736 53.7781 26.441 53.7781 23.6213ZM47.4885 42.9332C45.8774 45.4394 44.6951 48.175 43.9724 51.0642L43.176 54.2454C43.0598 54.7139 42.6412 55.0405 42.1589 55.0405C41.635 55.0405 41.1988 54.6641 41.1214 54.1461L39.4824 43.2167C39.2399 41.5996 37.8764 40.4269 36.2419 40.4269C34.6074 40.4269 33.2439 41.5996 33.0013 43.2167L31.3624 54.1461C31.2857 54.6641 30.8488 55.0405 30.3248 55.0405C29.8426 55.0405 29.4239 54.7139 29.3062 54.2454L28.5105 51.0642C27.7886 48.1742 26.6057 45.4386 24.9946 42.9332C22.3144 38.7631 20.8976 33.9384 20.8976 28.9809V27.0541C20.8976 22.7438 24.4042 19.2372 28.7144 19.2372C30.2408 19.2372 31.6671 19.6442 32.8391 20.4144C33.8628 21.0873 35.0085 21.4293 36.2419 21.4293C37.4753 21.4293 38.621 21.0873 39.6439 20.4144C40.8167 19.6442 42.243 19.2372 43.7694 19.2372C47.6244 19.2372 50.9505 22.1095 51.4984 25.8601L51.5292 26.3358C50.6231 27.7745 49.0244 28.736 47.2021 28.736V30.1974C48.9177 30.1974 50.4353 31.0493 51.3633 32.3492C50.87 36.0962 49.5314 39.7547 47.4885 42.9332ZM53.0475 32.3127C52.4191 31.0925 51.4217 30.0951 50.2014 29.4668C51.4217 28.8383 52.4191 27.841 53.0475 26.6207C53.6758 27.841 54.6732 28.8383 55.8935 29.4668C54.6732 30.0951 53.6758 31.0925 53.0475 32.3127Z" fill="#000D44"/>
</g>
</g>
</g>
</g>
<defs>
<clipPath id="clip0_48_418">
<rect width="45.302" height="45.302" fill="white" transform="translate(13.5907 14.4878)"/>
</clipPath>
<clipPath id="clip1_48_418">
<rect width="45.302" height="45.302" fill="white" transform="translate(13.5908 14.4878)"/>
</clipPath>
<clipPath id="clip2_48_418">
<rect width="45.302" height="45.302" fill="white" transform="translate(13.5908 14.4878)"/>
</clipPath>
</defs>
</svg>
