<svg width="73" height="73" viewBox="0 0 73 73" fill="none" xmlns="http://www.w3.org/2000/svg">
<rect width="72.4833" height="72.4833" rx="36.2416" fill="#E6E9EE"/>
<g clip-path="url(#clip0_51_84)">
<g clip-path="url(#clip1_51_84)">
<g clip-path="url(#clip2_51_84)">
<mask id="mask0_51_84" style="mask-type:luminance" maskUnits="userSpaceOnUse" x="12" y="13" width="48" height="47">
<path d="M59.2588 13.3318H12.7719V59.8187H59.2588V13.3318Z" fill="white"/>
</mask>
<g mask="url(#mask0_51_84)">
<path d="M37.4497 41.9692C37.0623 41.9692 36.6812 41.786 36.443 41.4441C34.7366 38.995 32.2577 37.0697 29.4625 36.0223C29.074 35.8766 28.6775 35.7458 28.258 35.6077C27.1685 35.2489 26.0419 34.8783 24.9973 34.2128C21.5483 32.0159 20.4011 27.4939 22.3859 23.9186C22.7145 23.3267 23.4606 23.1133 24.0526 23.4419C24.6444 23.7704 24.8578 24.5167 24.5292 25.1085C23.1725 27.5524 23.9564 30.6435 26.314 32.1453C27.0998 32.6458 28.035 32.9536 29.0248 33.2796C29.449 33.4192 29.8875 33.5633 30.3225 33.7264C33.5784 34.9466 36.4663 37.1899 38.4541 40.0427C38.8412 40.598 38.7047 41.362 38.1493 41.749C37.9358 41.8977 37.6915 41.9692 37.4497 41.9692Z" fill="#1F5FFF"/>
<path d="M52.3112 32.831C51.9863 32.503 52.0001 31.9714 52.3394 31.6585C52.4445 31.5616 52.5497 31.4647 52.6553 31.368C54.7963 29.4071 56.2805 26.6838 56.179 23.5251C56.0103 18.2828 51.6975 14.0578 46.4527 14.0131C40.9914 13.9664 36.5499 18.3793 36.5499 23.8297C36.5499 24.2681 36.6828 26.2351 36.756 27.284C36.7825 27.6647 36.5239 28.0062 36.1504 28.0843C35.7131 28.1756 35.4464 28.6212 35.5747 29.0492C36.2014 31.1397 38.2987 36.5798 43.0755 36.1998C43.906 36.1337 44.6571 36.0164 45.3453 35.8584L45.1742 36.8551L38.35 39.384L31.7889 48.4159V52.0509C31.7889 57.6026 40.1898 63.8878 49.8781 53.7591C57.0763 46.234 55.8513 36.403 52.3112 32.831Z" fill="#1AB3FA"/>
<path d="M52.3396 31.6585C52.4447 31.5616 52.55 31.4647 52.6556 31.368C54.7965 29.4071 56.2807 26.6838 56.1792 23.5251C56.0106 18.2828 51.6978 14.0579 46.4529 14.0131C46.1156 14.0102 45.7821 14.0244 45.4534 14.0548C50.3224 14.5043 54.2037 18.5574 54.3634 23.5249C54.4649 26.6836 52.9807 29.407 50.8398 31.3679C50.7343 31.4646 50.6291 31.5615 50.5241 31.6583C50.1846 31.9713 50.1708 32.5031 50.4959 32.831C54.0359 36.403 55.2608 46.2338 48.0626 53.7592C44.697 57.2778 41.4869 58.8151 38.7302 59.091C41.8432 59.4148 45.7435 58.0822 49.8784 53.7592C57.0767 46.2338 55.8516 36.4029 52.3116 32.831C51.9864 32.5031 52.0002 31.9714 52.3396 31.6585Z" fill="#1F5FFF"/>
<path d="M50.6524 35.746C49.9473 34.0415 47.9782 33.2096 46.2432 33.952L39.0921 37.0907C38.6659 37.274 38.1698 37.1597 37.8669 36.8081L34.483 32.8805C33.6796 31.9482 32.2746 31.8386 31.3368 32.6357C30.392 33.4389 30.28 34.8572 31.0869 35.7988L36.2664 41.8428C37.5315 43.319 39.5955 43.826 41.4006 43.1041L48.7984 40.1289C50.531 39.4398 51.3653 37.4682 50.6524 35.746Z" fill="#1AB3FA"/>
<path d="M33.0685 33.7916L37.1034 38.5C37.4063 38.8514 37.9021 38.966 38.3283 38.7827L45.4795 35.6439C47.2145 34.9015 49.1838 35.7332 49.8889 37.4378C49.9979 37.7011 50.0705 37.9703 50.1093 38.2398C50.1498 38.5211 50.5366 38.5759 50.6465 38.3138C50.9785 37.5219 51.0072 36.6031 50.6524 35.7458C49.9473 34.0413 47.9782 33.2095 46.2432 33.9519L39.0921 37.0907C38.6658 37.2738 38.1697 37.1596 37.8669 36.808L34.5181 32.9211C33.7159 31.9898 32.2619 31.842 31.3289 32.6424C31.1844 32.7664 31.0596 32.9047 30.9548 33.0536C31.7147 32.9102 32.5279 33.1641 33.0685 33.7916Z" fill="#1F5FFF"/>
<path d="M32.3743 39.5025H27.437C27.2627 39.5025 27.0969 39.427 26.9824 39.2955L25.949 38.1079C25.5456 37.6446 24.9611 37.3787 24.3467 37.3787H24.2782C23.1051 37.3787 22.1542 38.3295 22.1542 39.5026V44.087C22.1542 44.7845 22.7196 45.35 23.4171 45.35H29.5962C30.8073 45.35 31.7891 46.3318 31.7891 47.543V49.2918L39.0319 48.0586V46.1603C39.0319 42.4833 36.0513 39.5025 32.3743 39.5025Z" fill="#1AB3FA"/>
<path d="M39.0318 46.1602L39.0314 46.1793C39.0314 46.6732 38.6311 47.0735 38.1372 47.0735C37.6921 47.0735 37.3083 46.7469 37.2519 46.3053C36.8333 43.031 34.0368 40.5009 30.6493 40.5009H25.7119C25.5376 40.5009 25.3714 40.4255 25.257 40.2939L24.2238 39.1062C23.8206 38.6432 23.2359 38.3772 22.6213 38.3772H22.5531C22.5268 38.3772 22.5013 38.3781 22.476 38.379C22.8509 37.7779 23.5173 37.3784 24.2782 37.3784H24.3467C24.9613 37.3784 25.5459 37.6448 25.9489 38.1078L26.9824 39.2954C27.0968 39.427 27.2627 39.5023 27.437 39.5023H32.3743C36.0505 39.5024 39.0318 42.4831 39.0318 46.1602Z" fill="#1F5FFF"/>
<path d="M29.9535 26.2723L26.46 22.7789C26.3386 22.6575 26.3386 22.4606 26.46 22.3392L29.9535 18.8457C30.0748 18.7243 30.0748 18.5275 29.9535 18.4061L27.0987 15.5513C26.9773 15.4299 26.7805 15.4299 26.6591 15.5513L23.1656 19.0448C23.0441 19.1662 22.8473 19.1662 22.726 19.0448L19.2323 15.5513C19.1109 15.4299 18.9141 15.4299 18.7927 15.5513L15.9378 18.406C15.8165 18.5274 15.8165 18.7243 15.9378 18.8457L19.4314 22.3392C19.5527 22.4605 19.5527 22.6574 19.4314 22.7788L15.9378 26.2723C15.8165 26.3938 15.8165 26.5906 15.9378 26.712L18.7926 29.5668C18.914 29.6882 19.1109 29.6882 19.2322 29.5668L22.7258 26.0733C22.8471 25.9519 23.044 25.9519 23.1654 26.0733L26.6589 29.5668C26.7803 29.6882 26.9771 29.6882 27.0985 29.5668L29.9533 26.712C30.0748 26.5906 30.0748 26.3938 29.9535 26.2723Z" fill="#1F5FFF"/>
<path d="M52.8014 32.16C52.906 32.0634 53.0106 31.9671 53.1157 31.871C55.6299 29.568 56.9597 26.5965 56.8601 23.504C56.7733 20.7914 55.6497 18.245 53.6964 16.3337C51.7421 14.4216 49.172 13.3556 46.4591 13.3321C46.4284 13.3319 46.398 13.3318 46.3674 13.3318C43.5791 13.3318 40.9571 14.4105 38.9757 16.3753C36.9723 18.3617 35.8691 21.0092 35.8691 23.8301C35.8691 24.3152 36.0143 26.441 36.0768 27.3319C36.0796 27.3728 36.0514 27.4099 36.0109 27.4183C35.6151 27.5012 35.2698 27.7481 35.0637 28.0956C34.8581 28.442 34.8068 28.8614 34.9226 29.2456C35.4214 30.9092 36.7921 34.5213 39.6192 36.1168L38.8235 36.4661C38.6693 36.5324 38.492 36.4917 38.3826 36.3649L34.9988 32.4374C33.9558 31.2256 32.1153 31.0819 30.8956 32.1176C30.6125 32.3582 30.3828 32.6449 30.2124 32.9626C29.8887 32.848 29.2352 32.6324 29.2352 32.6324C28.2879 32.3203 27.3932 32.0257 26.6799 31.5719C25.5723 30.8656 24.8405 29.7387 24.6176 28.4898L26.1771 30.0492C26.3644 30.2367 26.6135 30.34 26.8785 30.34C27.1435 30.34 27.3926 30.2366 27.5798 30.0494L30.4349 27.1946C30.8223 26.807 30.8224 26.1794 30.4347 25.7917L27.2028 22.5599L30.4348 19.328C30.8214 18.9414 30.8215 18.3122 30.4348 17.9251L27.5798 15.0701C27.193 14.6835 26.5639 14.6836 26.1772 15.0702L22.9453 18.3023L19.7133 15.0702C19.3267 14.6836 18.6974 14.6836 18.3107 15.0702L15.4556 17.9253C15.2683 18.1127 15.1652 18.3617 15.1652 18.6267C15.1652 18.8916 15.2684 19.1407 15.4557 19.3281L18.6876 22.5599L15.4558 25.7918C15.2684 25.9791 15.1652 26.2283 15.1652 26.4933C15.1652 26.7581 15.2683 27.0072 15.4557 27.1947L18.3105 30.0494C18.6982 30.437 19.3256 30.4372 19.7133 30.0495L20.8304 28.9323C21.1937 31.3159 22.5676 33.4735 24.6311 34.7879C27.0969 36.36 29.1898 36.11 32.3314 38.2984L32.7915 38.8354C32.6532 38.8275 32.5142 38.8227 32.3741 38.8227H27.4724L26.4624 37.662C24.7698 35.7173 21.4729 36.9079 21.4729 39.5037V44.0884C21.4729 45.1602 22.345 46.0323 23.4168 46.0323H29.5959C30.4296 46.0323 31.1079 46.7106 31.1079 47.5444V52.0525C31.1079 54.9796 33.0975 57.8091 36.0588 59.093C37.172 59.5758 38.3801 59.8188 39.6325 59.8188C40.4395 59.8187 41.2651 59.7178 42.0953 59.5149C44.5142 58.9238 46.9415 57.4999 49.3094 55.2825C49.584 55.0254 49.5982 54.5946 49.3411 54.32C49.0841 54.0453 48.6531 54.0312 48.3787 54.2884C46.1835 56.3437 43.9608 57.6571 41.772 58.1919C39.9445 58.6383 38.1563 58.5179 36.6006 57.8434C34.1685 56.7888 32.4699 54.4075 32.4699 52.0524V47.5443C32.4699 45.9596 31.1806 44.6702 29.596 44.6702H23.4169C23.096 44.6702 22.8348 44.4092 22.8348 44.0884V39.5037C22.8348 38.1418 24.576 37.569 25.435 38.5562L26.4685 39.7438C26.7125 40.024 27.0654 40.1847 27.4369 40.1847H32.3742C35.6698 40.1847 38.351 42.866 38.351 46.1617V48.4745C38.351 48.8507 38.6558 49.1555 39.0319 49.1555C39.408 49.1555 39.7129 48.8506 39.7129 48.4745V46.1617C39.7129 45.4464 39.6082 44.7555 39.4164 44.1013C39.5151 44.107 39.6137 44.1107 39.7125 44.1107C40.3735 44.1107 41.034 43.9857 41.6544 43.7374L45.2519 42.2911C45.6008 42.1507 45.7699 41.7541 45.6296 41.4052C45.4893 41.0562 45.0927 40.8872 44.7438 41.0274L41.1473 42.4733C40.4054 42.7704 39.5857 42.8275 38.8115 42.6417C37.9779 41.1232 36.6223 39.9311 34.9884 39.3058L31.6038 35.3569C31.332 35.0399 31.2004 34.6362 31.2333 34.22C31.2662 33.804 31.4594 33.4259 31.7771 33.1559C32.428 32.6032 33.4101 32.6798 33.9665 33.3264L37.3508 37.2546C37.8507 37.8337 38.6585 38.0199 39.3659 37.7156L46.5113 34.5792C47.174 34.2956 47.904 34.2882 48.567 34.5587C49.232 34.8299 49.7491 35.3445 50.0232 36.0077C50.2976 36.6709 50.2949 37.4 50.0157 38.0606C49.7362 38.7216 49.2145 39.2318 48.5439 39.4983L47.6922 39.8415C47.3434 39.9822 47.1745 40.3788 47.315 40.7276C47.422 40.9932 47.6773 41.1543 47.9469 41.1543C48.1671 41.1543 48.2325 41.0824 49.0499 40.7628C50.0614 40.3673 50.8476 39.5902 51.2701 38.5907C51.6924 37.5918 51.6965 36.4894 51.2818 35.4871C50.8677 34.485 50.0863 33.7073 49.0814 33.2974C48.0784 32.8884 46.9753 32.8988 45.9695 33.3295L41.3307 35.3656C40.0383 35.0029 38.8873 34.0637 37.9074 32.5686C36.9985 31.1819 36.4644 29.6464 36.2266 28.8535C36.2129 28.8081 36.2425 28.7614 36.2898 28.7515C36.9924 28.6044 37.4849 27.9538 37.4352 27.2373C37.3364 25.827 37.2307 24.1913 37.2307 23.8302C37.2307 21.3752 38.1909 19.0712 39.9342 17.3425C41.6776 15.6138 43.9869 14.6752 46.447 14.6942C48.8059 14.7146 51.0421 15.6426 52.7435 17.3073C54.4446 18.9717 55.4229 21.1879 55.4985 23.5478C55.5851 26.237 54.4119 28.8363 52.1957 30.8665C52.0897 30.9634 51.9836 31.0612 51.8776 31.1589C51.5764 31.4367 51.4053 31.8155 51.3959 32.2254C51.3865 32.6345 51.5397 33.0198 51.8275 33.311C53.4482 34.9463 54.4546 37.9546 54.454 41.1624C54.4533 45.006 53.0478 48.8649 50.4964 52.028C50.2604 52.3207 50.3062 52.7495 50.5989 52.9856C50.891 53.2211 51.3199 53.1765 51.5565 52.8831C54.3025 49.4786 55.8152 45.3163 55.816 41.1626C55.8167 37.5552 54.6872 34.2616 52.7954 32.3528C52.7425 32.299 52.7458 32.2112 52.8014 32.16ZM19.012 28.8247L16.6804 26.4932L19.9125 23.2611C20.2991 22.8743 20.299 22.245 19.9124 21.8584L16.6804 18.6265L19.012 16.295L22.244 19.5271C22.6306 19.9135 23.2598 19.9136 23.6466 19.527L26.8785 16.295L29.2101 18.6265L25.978 21.8585C25.7907 22.0459 25.6876 22.295 25.6876 22.5599C25.6876 22.8248 25.7908 23.074 25.9781 23.2613L29.2101 26.4932L26.8785 28.8247L23.6466 25.5927C23.2599 25.2061 22.6307 25.2061 22.2439 25.5927L19.012 28.8247ZM25.3631 33.6393C23.331 32.3448 22.096 30.0746 22.0958 27.667L22.9452 26.8176L23.2139 27.0862C22.9914 29.3212 24.0384 31.5031 25.9481 32.7206C26.8054 33.2662 27.7785 33.5867 28.8116 33.9271L28.8283 33.9326C29.1698 34.0452 29.5207 34.1616 29.8676 34.2863C29.8585 34.7285 29.9485 35.1595 30.1291 35.5541C29.9876 35.4961 29.8454 35.4397 29.7023 35.386C28.3012 34.8585 26.7203 34.5044 25.3631 33.6393Z" fill="#000D44"/>
<path d="M41.3007 25.8854C40.9729 26.2665 40.4195 26.3429 40.0024 26.0796C39.6842 25.8786 39.2637 25.9738 39.0629 26.2918C38.8621 26.6099 38.9571 27.0304 39.2752 27.2312C39.6561 27.4718 40.093 27.5969 40.5371 27.5969C41.2506 27.5969 41.9002 27.2771 42.3333 26.7735C42.5785 26.4883 42.5461 26.0584 42.261 25.8131C41.9759 25.5679 41.5459 25.6003 41.3007 25.8854Z" fill="#000D44"/>
<path d="M46.3611 28.7991C46.0366 28.6089 45.6196 28.7178 45.4293 29.0424C45.2392 29.3668 45.3482 29.784 45.6727 29.9741C46.0065 30.1698 46.3703 30.2891 46.7538 30.3286C48.2996 30.4886 49.695 29.2857 49.8644 27.6476C50.0322 26.0245 48.9362 24.5488 47.3683 24.3869C46.7979 24.328 46.2303 24.4514 45.7267 24.7443C45.4015 24.9334 45.2913 25.3502 45.4804 25.6753C45.6695 26.0003 46.0862 26.1105 46.4113 25.9217C46.6639 25.7747 46.9463 25.7127 47.2281 25.7416C48.0016 25.8215 48.6046 26.5883 48.5096 27.5076C48.3904 28.6604 47.2588 29.3246 46.3611 28.7991Z" fill="#000D44"/>
</g>
</g>
</g>
</g>
<defs>
<clipPath id="clip0_51_84">
<rect width="46.4869" height="46.4869" fill="white" transform="translate(12.7719 13.3318)"/>
</clipPath>
<clipPath id="clip1_51_84">
<rect width="46.4869" height="46.4869" fill="white" transform="translate(12.7719 13.3318)"/>
</clipPath>
<clipPath id="clip2_51_84">
<rect width="46.4869" height="46.4869" fill="white" transform="translate(12.7719 13.3318)"/>
</clipPath>
</defs>
</svg>
