<svg width="73" height="73" viewBox="0 0 73 73" fill="none" xmlns="http://www.w3.org/2000/svg">
<rect width="72.4833" height="72.4833" rx="36.2416" fill="#E6E9EE"/>
<g clip-path="url(#clip0_47_190)">
<g clip-path="url(#clip1_47_190)">
<g clip-path="url(#clip2_47_190)">
<path fill-rule="evenodd" clip-rule="evenodd" d="M35.1652 33.5446L40.356 34.9843L50.8735 37.9012L53.7166 27.6956C55.1771 22.4535 52.0726 16.9708 46.8189 15.5135C41.5627 14.0562 36.0701 17.1513 34.6072 22.3959L32.923 28.448C32.9229 32.1452 33.9032 33.1961 35.1652 33.5446Z" fill="#1AB3FA"/>
<path fill-rule="evenodd" clip-rule="evenodd" d="M49.2521 26.4565L46.409 36.6622L50.8733 37.9012L53.7164 27.6955C55.1768 22.4534 52.0725 16.9706 46.8187 15.5134C46.0496 15.3002 45.2778 15.1848 44.5111 15.1572C48.4175 17.3293 50.4988 21.9794 49.2521 26.4565Z" fill="#1F5FFF"/>
<path fill-rule="evenodd" clip-rule="evenodd" d="M50.8734 37.9011L46.409 36.6621L43.566 46.8678C42.8044 49.6043 40.9441 51.7562 38.5913 52.9802C38.37 53.5195 38.1085 54.0261 37.8069 54.5027C37.6385 54.7711 37.4575 55.0294 37.2639 55.2776C42.0475 55.8621 46.7031 52.8698 48.0302 48.1069L50.8734 37.9011Z" fill="#DDDAEC"/>
<path fill-rule="evenodd" clip-rule="evenodd" d="M26.7942 25.7947C22.1589 25.7947 18.4033 29.5444 18.4033 34.1694C18.4033 37.4325 20.2711 40.2567 23.0009 41.6412C26.1256 43.0307 29.964 42.9955 32.8825 39.9331C34.3103 38.4333 35.1875 36.4017 35.1875 34.1694C35.1875 33.9587 35.18 33.7505 35.1649 33.545C35.0191 31.5785 34.1946 29.8027 32.9226 28.4484C31.3919 26.8155 29.2125 25.7947 26.7942 25.7947Z" fill="#1F5FFF"/>
<path fill-rule="evenodd" clip-rule="evenodd" d="M29.4036 49.218L39.1494 51.1468C40.0694 46.5468 37.6034 41.8064 33.0787 40.008C33.0133 39.983 32.948 39.9579 32.8827 39.9328C31.8998 39.5666 30.8917 39.3635 29.8937 39.3159C27.3725 39.1905 24.9065 40.0382 23.0011 41.641C22.2294 42.2855 21.5532 43.0556 21.0002 43.9359L29.4036 49.218Z" fill="#B1E4F9"/>
<path fill-rule="evenodd" clip-rule="evenodd" d="M37.8069 54.5027L29.3934 50.3065L19.6602 47.2942C18.7452 51.8892 21.2112 56.627 25.7308 58.4229C26.9324 58.8994 28.1743 59.1276 29.3933 59.1276H29.4109C32.4601 59.1252 35.3811 57.7105 37.2638 55.2776C37.4576 55.0293 37.6385 54.771 37.8069 54.5027Z" fill="#B1E4F9"/>
<path fill-rule="evenodd" clip-rule="evenodd" d="M28.8632 26.0527C30.7862 28.1045 33.2546 35.5863 28.4484 39.351C28.926 39.3032 29.4087 39.2907 29.8938 39.3158C30.8918 39.3635 31.8997 39.5666 32.8827 39.9327C34.3105 38.433 35.1878 36.4014 35.1878 34.169C35.1878 33.9584 35.1802 33.7502 35.1651 33.5446C35.0193 31.5781 34.1948 29.8024 32.9228 28.448C31.8419 27.2968 30.4417 26.4515 28.8632 26.0527Z" fill="#1AB3FA"/>
<path fill-rule="evenodd" clip-rule="evenodd" d="M37.807 54.5027L33.1189 52.6392C33.0233 52.9577 32.9204 53.2662 32.8047 53.5722C31.9525 55.8496 30.5725 57.7758 28.8556 59.1126C29.0341 59.1227 29.2151 59.1277 29.3936 59.1277H29.4112C32.4604 59.1252 35.3814 57.7106 37.2641 55.2776C37.4576 55.0295 37.6386 54.7711 37.807 54.5027Z" fill="#1AB3FA"/>
<path fill-rule="evenodd" clip-rule="evenodd" d="M33.7398 48.9974L39.1494 51.1468C40.0694 46.5469 37.6034 41.8064 33.0787 40.0081C33.0133 39.983 32.948 39.9579 32.8826 39.9329C32.2466 39.6946 31.6006 39.5266 30.9546 39.4263C31.2889 39.8677 31.5981 40.3368 31.8796 40.8334C33.0661 42.9227 33.7599 45.4609 33.7599 48.1973C33.7598 48.4656 33.7549 48.7315 33.7398 48.9974Z" fill="#1AB3FA"/>
<path fill-rule="evenodd" clip-rule="evenodd" d="M39.1494 51.1467L28.6846 46.9881L21 43.9358C20.6833 44.4374 20.4068 44.9766 20.1781 45.5485C19.9493 46.1254 19.7784 46.7073 19.6603 47.2941L30.8162 51.726L37.8069 54.5026C38.1262 53.9984 38.4027 53.4566 38.6314 52.8823C38.8603 52.3104 39.0311 51.7286 39.1494 51.1467Z" fill="#1AB3FA"/>
<path fill-rule="evenodd" clip-rule="evenodd" d="M33.1189 52.6393L37.807 54.5029C38.1263 53.9987 38.4028 53.457 38.6315 52.8827C38.8602 52.3108 39.0312 51.7289 39.1493 51.147L33.7397 48.9976C33.6769 50.2691 33.4633 51.4932 33.1189 52.6393Z" fill="#1AB3FA"/>
<path d="M53.3678 19.8672C51.9745 17.401 49.7123 15.6279 46.9976 14.8746C46.997 14.8744 46.9964 14.8743 46.9959 14.8742C41.3767 13.3163 35.5319 16.6104 33.9676 22.2181L32.5763 27.2178C31.0065 25.9153 28.9905 25.1309 26.7942 25.1309C24.6298 25.1309 22.5338 25.9064 20.8922 27.3149C20.614 27.5535 20.5821 27.9725 20.8206 28.2506C21.0594 28.5288 21.4782 28.5608 21.7564 28.3221C23.1576 27.1201 24.9467 26.458 26.7942 26.458C31.0564 26.458 34.524 29.9173 34.524 34.1691C34.524 36.0122 33.8728 37.7686 32.6836 39.1613C29.2656 38.0488 25.6303 38.7764 22.932 40.848C20.5379 39.4692 19.067 36.9478 19.067 34.1691C19.067 32.9199 19.3574 31.7266 19.9302 30.6221C20.0989 30.2968 19.9719 29.8962 19.6465 29.7275C19.3211 29.5588 18.9206 29.6857 18.7519 30.0112C18.0803 31.3064 17.7397 32.7053 17.7397 34.1692C17.7397 37.2761 19.3071 40.1091 21.8861 41.766C20.9071 42.7474 20.1067 43.9371 19.5617 45.3029C18.5157 47.9256 18.5547 50.7982 19.6711 53.3912C20.7895 55.9885 22.8545 57.9945 25.4859 59.0397C26.7674 59.5487 28.0899 59.7898 29.3918 59.7898C32.5253 59.7898 35.5362 58.3924 37.553 55.9743C37.8537 56.0003 38.1546 56.0138 38.4552 56.0138C40.5184 56.0138 42.5585 55.4054 44.3088 54.2518C46.4401 52.847 47.9887 50.728 48.6696 48.285L49.7456 44.42C49.8438 44.067 49.6373 43.7011 49.2842 43.6029C48.9314 43.5046 48.5653 43.7111 48.4669 44.0641L47.3911 47.9291C46.2764 51.9293 42.5572 54.6766 38.4725 54.6847C38.7684 54.1955 39.0292 53.6767 39.2478 53.1288C40.2945 50.5077 40.2569 47.6368 39.1421 45.0451C38.1182 42.665 36.2983 40.7812 33.9755 39.6766C35.1395 38.1696 35.7943 36.3415 35.8474 34.4228L50.0559 38.3634L49.3041 41.0619C49.2057 41.4149 49.4122 41.7808 49.7653 41.8792C49.8249 41.8959 49.8848 41.9038 49.9437 41.9038C50.2342 41.9038 50.5009 41.7116 50.5826 41.418L54.3559 27.874C55.1087 25.1711 54.7579 22.3276 53.3678 19.8672ZM38.0151 52.6367C37.8711 52.9976 37.7065 53.3443 37.5236 53.6762L20.4342 46.8878C20.531 46.5192 20.651 46.1543 20.7944 45.7947C20.9373 45.4362 21.1012 45.0923 21.2826 44.7623L38.3733 51.5527C38.2769 51.9182 38.1575 52.28 38.0151 52.6367ZM25.9759 57.8063C23.6743 56.892 21.8682 55.1377 20.8901 52.8663C20.2494 51.3785 20.0146 49.7854 20.1873 48.2179L36.7844 54.8108C34.3282 58.0337 29.9265 59.3756 25.9759 57.8063ZM37.9228 45.5694C38.5636 47.059 38.7971 48.654 38.622 50.2233L22.0196 43.627C23.7785 41.3145 26.5381 39.9686 29.4157 39.9686C30.5547 39.9686 31.7125 40.1796 32.8336 40.6249C35.1378 41.541 36.9453 43.297 37.9228 45.5694ZM53.0772 27.5176L50.4119 37.0847L35.7791 33.0264C35.5505 31.2264 34.7892 29.59 33.6584 28.2795L35.2461 22.5744C36.6139 17.671 41.7275 14.7908 46.6409 16.1532C49.0144 16.8115 50.9931 18.3623 52.2122 20.5201C53.4279 22.6715 53.7349 25.1567 53.0772 27.5176Z" fill="#000D44"/>
<path d="M28.9359 34.015C29.3024 34.015 29.5995 33.7179 29.5995 33.3514C29.5995 32.9849 29.3024 32.6877 28.9359 32.6877H28.9183C28.5519 32.6877 28.2548 32.9849 28.2548 33.3514C28.2548 33.7179 28.5519 34.015 28.9183 34.015H28.9359Z" fill="#000D44"/>
<path d="M27.0583 37.6243H27.0759C27.4424 37.6243 27.7395 37.3272 27.7395 36.9607C27.7395 36.5942 27.4424 36.2971 27.0759 36.2971H27.0583C26.6918 36.2971 26.3947 36.5942 26.3947 36.9607C26.3947 37.3272 26.6918 37.6243 27.0583 37.6243Z" fill="#000D44"/>
<path d="M23.5139 34.9755C23.8804 34.9755 24.1776 34.6783 24.1776 34.3118C24.1776 33.9454 23.8804 33.6482 23.5139 33.6482H23.4938C23.1273 33.6482 22.8302 33.9454 22.8302 34.3118C22.8302 34.6783 23.1273 34.9755 23.4938 34.9755H23.5139Z" fill="#000D44"/>
<path d="M25.9446 29.3369H25.9269C25.5604 29.3369 25.2633 29.634 25.2633 30.0005C25.2633 30.367 25.5604 30.6641 25.9269 30.6641H25.9446C26.311 30.6641 26.6081 30.367 26.6081 30.0005C26.6081 29.634 26.3111 29.3369 25.9446 29.3369Z" fill="#000D44"/>
</g>
</g>
</g>
<defs>
<clipPath id="clip0_47_190">
<rect width="45.302" height="45.302" fill="white" transform="translate(13.5907 14.4878)"/>
</clipPath>
<clipPath id="clip1_47_190">
<rect width="45.302" height="45.302" fill="white" transform="translate(13.5907 14.4878)"/>
</clipPath>
<clipPath id="clip2_47_190">
<rect width="45.302" height="45.302" fill="white" transform="translate(13.5907 14.4878)"/>
</clipPath>
</defs>
</svg>
