<svg width="73" height="73" viewBox="0 0 73 73" fill="none" xmlns="http://www.w3.org/2000/svg">
<rect width="72.4833" height="72.4833" rx="36.2416" fill="#E6E9EE"/>
<g clip-path="url(#clip0_51_112)">
<g clip-path="url(#clip1_51_112)">
<g clip-path="url(#clip2_51_112)">
<g clip-path="url(#clip3_51_112)">
<mask id="mask0_51_112" style="mask-type:luminance" maskUnits="userSpaceOnUse" x="12" y="14" width="48" height="47">
<path d="M59.3191 14.332H12.8322V60.819H59.3191V14.332Z" fill="white"/>
</mask>
<g mask="url(#mask0_51_112)">
<path d="M58.5442 32.9265V42.2239C55.3187 42.4226 52.3822 44.1499 50.6414 46.8726C47.4841 52.3419 41.7668 55.835 35.4593 56.1481C29.1519 56.4614 23.1167 53.5518 19.4332 48.4221C15.9312 46.8726 13.6068 43.5642 13.6068 37.5752C13.6068 31.5861 15.9312 28.2778 19.4177 26.7282C23.1001 21.5915 29.1395 18.6769 35.452 18.9902C41.7646 19.3035 47.4857 22.8017 50.6414 28.2778C52.3822 31.0004 55.3187 32.7277 58.5442 32.9265Z" fill="#1AB3FA"/>
<path d="M50.6414 28.2781C47.3176 22.5212 41.1734 18.9765 34.526 18.9807C34.123 18.9807 33.7511 18.9807 33.3328 18.9807C39.5729 19.3638 45.2028 22.8571 48.3171 28.2781C50.0578 31.0007 52.9944 32.7281 56.2199 32.9268V42.2242C52.9944 42.4229 50.0578 44.1503 48.3171 46.8729C45.2028 52.294 39.5729 55.7872 33.3328 56.1702C33.7279 56.1702 34.1076 56.1702 34.526 56.1702C41.1734 56.1745 47.3176 52.6298 50.6414 46.8729C52.3822 44.1503 55.3188 42.4229 58.5442 42.2242V32.9268C55.3188 32.7281 52.3822 31.0007 50.6414 28.2781Z" fill="#1F5FFF"/>
<path d="M27.5529 37.5753C27.5529 41.8521 25.6469 45.3231 23.2916 45.3231C23.1627 45.3356 23.033 45.3356 22.9042 45.3231C21.3546 45.0829 20.0917 43.3939 19.4564 41.0153C19.6601 41.29 19.9751 41.4602 20.3164 41.4802C21.3546 41.4492 22.1294 39.7137 22.1294 37.5753C22.1294 35.4369 21.3546 33.7013 20.3319 33.7013C19.9906 33.7213 19.6756 33.8916 19.4719 34.1662C20.1072 31.7877 21.3934 30.0986 22.9042 29.8275C23.0279 29.816 23.1524 29.816 23.2761 29.8275C25.6469 29.8275 27.5529 33.2985 27.5529 37.5753Z" fill="#1AB3FA"/>
<path d="M23.2916 29.8275C23.1627 29.815 23.033 29.815 22.9041 29.8275C22.6336 29.8777 22.3722 29.9692 22.1294 30.0987C23.9191 31.0284 25.2285 33.9725 25.2285 37.5443C25.2285 41.1161 23.9269 44.0602 22.1294 44.9899C22.3685 45.1411 22.63 45.2535 22.9041 45.3231C23.0279 45.3346 23.1524 45.3346 23.276 45.3231C25.6004 45.3231 27.5374 41.852 27.5374 37.5752C27.5374 33.2985 25.6469 29.8275 23.2916 29.8275Z" fill="#1F5FFF"/>
<path d="M22.1294 37.5755C22.1294 39.7139 21.3547 41.4495 20.332 41.4495C19.9906 41.4296 19.6756 41.2592 19.472 40.9846C18.8832 38.75 18.8832 36.4011 19.472 34.1665C19.6756 33.8918 19.9906 33.7216 20.332 33.7017C21.3547 33.7017 22.1294 35.4371 22.1294 37.5755Z" fill="#1F5FFF"/>
<path d="M58.5443 36.026V39.1251H54.1204C51.1428 39.1127 48.4259 40.8213 47.1473 43.5104C46.885 44.074 46.582 44.6177 46.2408 45.1374C45.2879 44.0759 44.5983 41.124 44.5983 37.653C44.5983 34.1819 45.3111 31.1216 46.295 30.0989C46.614 30.5955 46.8987 31.1131 47.1473 31.6484C48.4259 34.3375 51.1428 36.046 54.1204 36.0337L58.5443 36.026Z" fill="#1F5FFF"/>
<path d="M56.2198 36.0259H58.5442V39.125H56.2198V36.0259Z" fill="#1AB3FA"/>
<path d="M44.5981 37.653C44.5981 41.124 45.2876 44.076 46.2406 45.1374C43.6955 49.094 39.3271 51.5008 34.6227 51.5384C29.9183 51.5759 25.5121 49.239 22.9042 45.3234C23.0279 45.3348 23.1524 45.3348 23.2761 45.3234C25.6004 45.3234 27.5374 41.8523 27.5374 37.5755C27.5374 33.2987 25.6315 29.8277 23.2761 29.8277C23.1524 29.8162 23.0279 29.8162 22.9042 29.8277C25.518 25.9008 29.9399 23.5614 34.6569 23.6099C39.3739 23.6583 43.7468 26.0881 46.2794 30.0679C45.3109 31.1216 44.5981 34.12 44.5981 37.653Z" fill="white"/>
<path d="M45.3729 37.7381C45.3729 37.7381 45.3729 37.7381 45.3729 37.6838C45.3779 37.6478 45.3779 37.6114 45.3729 37.5754C45.4534 37.1562 45.1797 36.7509 44.7608 36.6689C43.2654 36.3589 41.4989 35.6151 41.4989 33.7015C41.514 32.7962 41.3992 31.8934 41.1581 31.0207C41.159 31.0027 41.159 30.9846 41.1581 30.9665C40.4143 28.5956 38.5316 27.5032 35.3007 27.5032C34.8728 27.5032 34.5259 27.8501 34.5259 28.278C34.5259 28.7059 34.8728 29.0528 35.3007 29.0528C37.2454 29.0528 38.4773 29.4479 39.1746 30.4086C37.8611 30.4265 36.6212 31.0181 35.781 32.0279C35.7043 32.1187 35.6215 32.2041 35.5332 32.2836C35.1773 32.6846 34.6668 32.9141 34.1307 32.9141C33.5947 32.9141 33.0842 32.6846 32.7284 32.2836C32.5341 32.0676 32.2353 31.9784 31.9544 32.0527C31.6735 32.1269 31.4578 32.352 31.3956 32.6358C31.3334 32.9196 31.4352 33.2144 31.6592 33.3993C32.2973 34.0683 33.1754 34.4559 34.0998 34.4762C35.0429 34.4487 35.9402 34.0637 36.6101 33.3993C36.7108 33.3063 36.8116 33.1978 36.92 33.0816C37.6186 32.2289 38.7101 31.8005 39.8022 31.9505C39.9084 32.5279 39.9577 33.1144 39.9494 33.7015C39.9494 35.5997 41.0961 37.0408 43.126 37.7846C42.22 38.2383 41.4058 38.8556 40.7242 39.6053C39.1746 38.66 37.0207 39.3496 36.1297 39.7138L34.154 38.4664C33.9188 38.3197 33.6231 38.3096 33.3784 38.4401C33.1337 38.5705 32.9771 38.8215 32.9677 39.0986C32.9583 39.3757 33.0974 39.6368 33.3328 39.7835L34.8823 40.7442L33.9759 41.6895C33.8291 41.835 33.7467 42.033 33.7467 42.2395C33.7467 42.4461 33.8291 42.6442 33.9759 42.7897C34.1245 42.929 34.3222 43.0042 34.5259 42.9988C34.7395 43.0001 34.9442 42.9133 35.0915 42.7587L36.5326 41.2091C37.2377 40.8837 38.857 40.3646 39.8409 40.8837C39.5119 41.5067 39.2868 42.1793 39.1746 42.8749C38.9924 44.2034 38.2545 45.3919 37.1447 46.1445C36.1679 46.6264 35.0224 46.6264 34.0456 46.1445C33.6476 45.9862 33.1966 46.1804 33.0383 46.5783C32.88 46.9763 33.0743 47.4273 33.4722 47.5855C34.1841 47.8843 34.9472 48.0421 35.7191 48.0505C36.489 48.0549 37.247 47.8601 37.9194 47.4848C39.4417 46.5054 40.4648 44.9143 40.7242 43.1228C41.1503 40.5506 43.2189 39.3109 44.8692 38.7221C45.0676 38.6599 45.2327 38.5208 45.3274 38.3357C45.4221 38.1506 45.4385 37.9353 45.3729 37.7381Z" fill="#1F5FFF"/>
<path d="M58.5443 32.152C55.6035 31.9511 52.9272 30.3821 51.3156 27.9139C48.05 22.2483 42.1462 18.613 35.617 18.2474C29.0879 17.8818 22.8151 20.8353 18.9374 26.1009C14.8853 27.9758 12.8322 31.8343 12.8322 37.5754C12.8322 43.3165 14.8853 47.1749 18.9374 49.05C22.8151 54.3155 29.0879 57.269 35.617 56.9035C42.1462 56.5379 48.05 52.9025 51.3156 47.237C52.9272 44.7688 55.6035 43.1998 58.5443 42.9989C58.9722 42.9989 59.3191 42.652 59.3191 42.2241V32.9267C59.3191 32.4988 58.9722 32.152 58.5443 32.152ZM49.9675 46.4622C46.9533 51.711 41.4809 55.071 35.4363 55.3843C29.3917 55.6974 23.6013 52.9209 20.0609 48.0117C19.9684 47.8829 19.8386 47.7855 19.689 47.7328C16.1637 46.098 14.3817 42.7045 14.3817 37.5754C14.3817 32.4464 16.156 29.0529 19.658 27.5033C19.8211 27.4522 19.9627 27.3487 20.0609 27.2088C23.6013 22.2996 29.3917 19.5232 35.4363 19.8364C41.4809 20.1496 46.9533 23.5096 49.9675 28.7584C51.7163 31.4716 54.5692 33.2791 57.7695 33.7015V35.251H54.1203C51.4464 35.259 49.0068 33.727 47.8523 31.3152C45.4093 26.1648 40.2264 22.8743 34.526 22.8546C29.7076 22.8488 25.1942 25.2126 22.4549 29.1768C20.0454 29.8276 18.2556 33.2832 18.2556 37.5754C18.2556 41.8677 20.0454 45.3233 22.4549 45.9741C25.4584 50.2871 30.5333 52.6717 35.7705 52.2307C41.0076 51.7897 45.6124 48.5901 47.8523 43.8357C49.0068 41.4239 51.4464 39.8919 54.1203 39.8997H57.7695V41.4493C54.5569 41.888 51.7017 43.7225 49.9675 46.4622ZM57.7695 38.3502H54.1203C50.8491 38.3538 47.8685 40.2294 46.4499 43.1771C46.388 43.3088 46.3105 43.4406 46.2485 43.5645C45.6172 41.6594 45.3209 39.6592 45.373 37.6529C45.3153 35.6109 45.6222 33.5748 46.2795 31.6406C46.3337 31.7491 46.3957 31.8575 46.4499 31.9737C47.8685 34.9215 50.8491 36.7971 54.1203 36.8006H57.7695V38.3502ZM20.332 34.4763C20.58 34.4763 21.3548 35.5455 21.3548 37.5754C21.3548 39.6054 20.58 40.6746 20.332 40.6746C20.2621 40.6543 20.1982 40.617 20.1461 40.5661C19.6915 38.5982 19.6915 36.5527 20.1461 34.5848C20.1982 34.5338 20.2621 34.4966 20.332 34.4763ZM22.9043 37.5754C22.9043 35.1116 21.9978 33.2676 20.6962 32.9732C21.3548 31.4779 22.3543 30.6024 23.2917 30.6024C24.973 30.6024 26.7782 33.4071 26.7782 37.5754C26.7782 41.7438 24.973 44.5484 23.2917 44.5484C22.3543 44.5484 21.378 43.673 20.6962 42.1776C21.9978 41.8832 22.9043 40.0392 22.9043 37.5754ZM28.3278 37.5754C28.3278 33.4071 26.6465 30.0368 24.3454 29.2388C26.9633 26.0354 30.9342 24.2482 35.0679 24.4126C39.2017 24.5772 43.018 26.6743 45.373 30.0756C44.4356 31.5321 43.8234 34.3833 43.8234 37.6529C43.8234 40.9225 44.3891 43.673 45.2956 45.145C42.8217 48.6428 38.8102 50.7294 34.526 50.7467C30.5779 50.7495 26.8384 48.9737 24.3454 45.9121C26.6465 45.1141 28.3278 41.736 28.3278 37.5754Z" fill="#000D44"/>
</g>
</g>
</g>
</g>
</g>
<defs>
<clipPath id="clip0_51_112">
<rect width="45.302" height="45.302" fill="white" transform="translate(13.5907 14.4878)"/>
</clipPath>
<clipPath id="clip1_51_112">
<rect width="46.4869" height="46.4869" fill="white" transform="translate(12.8322 14.332)"/>
</clipPath>
<clipPath id="clip2_51_112">
<rect width="46.4869" height="46.4869" fill="white" transform="translate(12.8322 14.332)"/>
</clipPath>
<clipPath id="clip3_51_112">
<rect width="46.4869" height="46.4869" fill="white" transform="translate(12.8322 14.332)"/>
</clipPath>
</defs>
</svg>
