<svg width="73" height="73" viewBox="0 0 73 73" fill="none" xmlns="http://www.w3.org/2000/svg">
<rect width="72.4833" height="72.4833" rx="36.2416" fill="#E6E9EE"/>
<g clip-path="url(#clip0_48_446)">
<g clip-path="url(#clip1_48_446)">
<g clip-path="url(#clip2_48_446)">
<g clip-path="url(#clip3_48_446)">
<mask id="mask0_48_446" style="mask-type:luminance" maskUnits="userSpaceOnUse" x="13" y="15" width="47" height="46">
<path d="M59.2446 15.1125H13.9426V60.4146H59.2446V15.1125Z" fill="white"/>
</mask>
<g mask="url(#mask0_48_446)">
<path d="M40.4937 52.5592C40.0621 52.5421 39.6443 52.328 39.3825 51.9436C38.9441 51.2997 39.1106 50.4225 39.7545 49.984C41.0052 49.1325 42.0092 47.8127 42.5817 46.268C44.4987 41.0951 40.7336 38.5338 40.142 33.9684C39.5873 29.687 42.5042 25.4186 46.6999 24.3695C47.4557 24.1808 48.2213 24.6399 48.4102 25.3955C48.5992 26.1512 48.1398 26.917 47.3842 27.1059C44.5766 27.8079 42.5683 30.7439 42.9394 33.6059C43.2419 35.9418 44.9399 38.1695 45.6242 40.8958C46.6805 45.1041 44.8796 49.9068 41.3422 52.3156C41.0826 52.4922 40.7852 52.5707 40.4937 52.5592Z" fill="#1F5FFF"/>
<path d="M32.6936 52.5592C33.125 52.5421 33.543 52.328 33.8046 51.9436C34.2431 51.2997 34.0766 50.4225 33.4327 49.984C32.1819 49.1325 31.1779 47.8127 30.6056 46.268C28.6884 41.0951 32.4536 38.5338 33.0452 33.9684C33.5999 29.687 30.683 25.4186 26.4873 24.3695C25.7316 24.1808 24.9659 24.6399 24.777 25.3955C24.588 26.1512 25.0474 26.917 25.803 27.1059C28.6106 27.8079 30.6188 30.7439 30.2478 33.6059C29.9454 35.9418 28.2473 38.1695 27.563 40.8958C26.5067 45.1041 28.3076 49.9068 31.845 52.3156C32.1046 52.4922 32.4021 52.5707 32.6936 52.5592Z" fill="#1F5FFF"/>
<path d="M50.859 15.9636H50.1158C48.0396 15.9636 46.3003 17.6104 46.2711 19.6864C46.2565 20.7237 46.6598 21.6662 47.3233 22.357C47.4856 22.526 47.485 22.7945 47.3227 22.9635C46.6712 23.6421 46.2708 24.5635 46.2708 25.5789C46.2708 26.5936 46.6712 27.5149 47.3227 28.1936C47.485 28.3627 47.4856 28.6311 47.3233 28.8001C46.6598 29.4909 46.2565 30.4333 46.2711 31.4707C46.3004 33.5467 48.0396 35.1934 50.1158 35.1934H50.8591C54.7634 35.1934 58.5811 30.8884 58.5811 25.5789C58.5811 20.2694 54.7633 15.9636 50.859 15.9636Z" fill="#1AB3FA"/>
<path d="M50.859 15.9636H50.048C49.7714 15.9636 49.5023 15.9941 49.2427 16.0506C52.7879 16.6827 56.0008 20.7082 56.0008 25.5791C56.0008 30.4498 52.7879 34.4747 49.2428 35.1067C49.5024 35.1631 49.7715 35.1936 50.0481 35.1936H50.8591C54.7634 35.1936 58.5811 30.8885 58.5811 25.5791C58.581 20.2694 54.7633 15.9636 50.859 15.9636Z" fill="#1F5FFF"/>
<path d="M22.3281 15.9636H23.0713C25.1475 15.9636 26.8868 17.6104 26.9159 19.6864C26.9305 20.7237 26.5273 21.6662 25.8638 22.357C25.7015 22.526 25.7021 22.7945 25.8644 22.9635C26.5159 23.6421 26.9163 24.5635 26.9163 25.5789C26.9163 26.5936 26.5159 27.5149 25.8644 28.1935C25.7021 28.3626 25.7015 28.6311 25.8638 28.8C26.5273 29.4908 26.9305 30.4333 26.9159 31.4707C26.8867 33.5467 25.1475 35.1934 23.0713 35.1934H22.328C18.4237 35.1934 14.606 30.8884 14.606 25.5789C14.606 20.2694 18.4238 15.9636 22.3281 15.9636Z" fill="#1AB3FA"/>
<path d="M26.9164 25.579C26.9164 24.5635 26.5161 23.6421 25.8645 22.9636C25.7023 22.7945 25.7016 22.5261 25.864 22.357C26.5275 21.6663 26.9308 20.7237 26.9161 19.6864C26.8872 17.638 25.1199 15.9636 23.0714 15.9636H22.3281C22.0055 15.9636 21.6836 15.9936 21.3643 16.0506C23.0633 16.4197 24.3364 17.9316 24.3364 19.741C24.3364 20.7565 23.936 21.6779 23.2844 22.3564C23.1219 22.5257 23.1219 22.7942 23.2844 22.9635C23.936 23.6421 24.3364 24.5635 24.3364 25.579C24.3364 26.5937 23.936 27.515 23.2844 28.1937C23.1219 28.363 23.1219 28.6315 23.2844 28.8008C23.936 29.4794 24.3364 30.4007 24.3364 31.4162C24.3364 33.2257 23.0632 34.7374 21.3643 35.1066C21.6836 35.1635 22.0056 35.1935 22.3282 35.1935H23.0716C25.1203 35.1935 26.8874 33.5191 26.9162 31.4705C26.9308 30.4333 26.5276 29.4909 25.8641 28.8001C25.7017 28.6311 25.7023 28.3626 25.8646 28.1936C26.5161 27.515 26.9164 26.5937 26.9164 25.579Z" fill="#1F5FFF"/>
<path d="M44.6124 48.5976C44.2722 46.429 41.0222 45.0212 36.5935 45.0212C32.1649 45.0212 28.9148 46.429 28.5747 48.5976C28.2322 50.7806 30.9476 54.152 34.4216 55.2209C34.8036 55.3384 35.0619 55.6945 35.0619 56.0941V57.9882C35.0619 58.813 35.6957 59.5226 36.5194 59.5613C37.3989 59.6027 38.1251 58.9019 38.1251 58.0315V56.0941C38.1251 55.6945 38.3834 55.3385 38.7654 55.2209C42.2394 54.152 44.9548 50.7806 44.6124 48.5976Z" fill="#1AB3FA"/>
<path d="M44.6124 48.5976C44.3223 46.7487 41.916 45.4536 38.4681 45.1118C40.9183 45.78 42.5489 47.0964 42.7844 48.5976C43.1268 50.7807 40.4115 53.3998 36.9375 54.4688C36.5555 54.5863 36.2971 54.9424 36.2971 55.342V58.0315C36.2971 58.532 36.0564 58.9754 35.6852 59.2548C35.9194 59.4339 36.2055 59.5466 36.5195 59.5614C37.399 59.6028 38.1251 58.9019 38.1251 58.0315V56.0941C38.1251 55.6945 38.3836 55.3385 38.7654 55.221C42.2395 54.1521 44.9548 50.7807 44.6124 48.5976Z" fill="#1F5FFF"/>
<path d="M56.6951 18.357C55.0849 16.4144 52.9577 15.3003 50.8591 15.3003H50.1159C47.6641 15.3003 45.6417 17.2638 45.6076 19.6773C45.592 20.7832 45.9789 21.8343 46.7011 22.6603C46.3758 23.0325 46.1192 23.4516 45.936 23.9005C43.289 24.7647 41.1056 26.8517 40.0544 29.5449C39.9211 29.8862 40.0898 30.271 40.4313 30.4043C40.5106 30.4353 40.5921 30.45 40.6725 30.45C40.9379 30.45 41.1885 30.2895 41.2908 30.0275C42.0979 27.9595 43.6728 26.3077 45.6102 25.446C45.5941 25.9935 45.6747 26.5084 45.8386 26.9965C43.4396 28.2652 41.9362 31.0266 42.2814 33.6912C42.457 35.0473 43.0412 36.3118 43.6598 37.6505C44.1609 38.7352 44.679 39.8566 44.9803 41.0574C45.4583 42.9618 45.3166 45.0627 44.6036 46.9952C44.2948 46.5974 43.8897 46.2374 43.3981 45.9203C44.3729 42.7236 43.306 40.426 42.2709 38.201C41.6497 36.8655 41.0075 35.4847 40.7998 33.8839C40.7545 33.5326 40.7339 33.1776 40.7388 32.8286C40.744 32.4621 40.4509 32.1609 40.0844 32.1558C40.0813 32.1558 40.0782 32.1558 40.0751 32.1558C39.7129 32.1558 39.4168 32.4469 39.4118 32.8102C39.4061 33.2218 39.4302 33.6401 39.4836 34.0541C39.7176 35.8587 40.4039 37.3339 41.0676 38.7606C42.0489 40.87 42.9056 42.7153 42.1962 45.3012C40.7308 44.6961 38.8157 44.3579 36.5937 44.3579C34.3715 44.3579 32.4563 44.6962 30.9909 45.3014C30.7554 44.4413 30.6804 43.6151 30.7629 42.7938C30.7996 42.4292 30.5337 42.1038 30.1691 42.0671C29.8049 42.0311 29.4792 42.2964 29.4425 42.661C29.3346 43.7352 29.4481 44.8066 29.7885 45.9208C29.2972 46.2377 28.8924 46.5976 28.5837 46.9953C27.8709 45.0627 27.7292 42.9619 28.2071 41.0574C28.5084 39.8566 29.0264 38.7352 29.5276 37.6506C30.1461 36.3119 30.7303 35.0473 30.9061 33.6912C31.2513 31.0266 29.7478 28.2652 27.3488 26.9965C27.5153 26.5012 27.5933 25.9855 27.5772 25.4451C30.7777 26.8665 32.8419 30.3754 32.3876 33.8833C32.1794 35.4855 31.5369 36.8668 30.9155 38.2026C30.7245 38.6132 30.527 39.0378 30.3457 39.4614C30.2015 39.7983 30.3577 40.1884 30.6945 40.3327C31.0315 40.4769 31.4215 40.3207 31.5658 39.9839C31.7391 39.5791 31.9236 39.1825 32.1189 38.7624C32.7828 37.3353 33.4693 35.8596 33.7038 34.054C34.2723 29.6641 31.4562 25.274 27.2514 23.9005C27.0681 23.4517 26.8116 23.0327 26.4863 22.6605C27.2085 21.8343 27.5954 20.7832 27.5798 19.6776C27.5459 17.2641 25.5234 15.3005 23.0717 15.3005H22.3284C20.2298 15.3005 18.1027 16.4146 16.4924 18.3572C14.848 20.3405 13.9426 22.9054 13.9426 25.5793C13.9426 28.2532 14.848 30.8178 16.4921 32.8011C18.1024 34.7434 20.2295 35.8574 22.3281 35.8574H23.0714C25.5231 35.8574 27.5456 33.8939 27.5796 31.4803C27.5952 30.3748 27.2084 29.3237 26.4861 28.4973C26.5767 28.3936 26.6619 28.2862 26.7419 28.1756C28.6616 29.1928 29.8647 31.3964 29.5895 33.5203C29.44 34.6749 28.8972 35.8498 28.3225 37.0937C27.7957 38.2338 27.2511 39.4127 26.9196 40.7342C26.2698 43.3235 26.6253 46.2235 27.8926 48.7244C27.796 49.9405 28.3953 51.3955 29.5631 52.7587C30.7914 54.1926 32.4912 55.3212 34.2266 55.8552C34.3278 55.8863 34.3983 55.9845 34.3983 56.0941V57.9881C34.3983 59.1868 35.3163 60.1689 36.4884 60.2241C37.7626 60.2856 38.7888 59.2622 38.7888 58.0315V56.0941C38.7888 55.9845 38.8595 55.8862 38.9607 55.8551C40.696 55.3212 42.3958 54.1927 43.6241 52.7587C44.7919 51.3955 45.3911 49.9405 45.2946 48.7244C46.5618 46.2234 46.9173 43.3234 46.2676 40.7341C45.5678 37.945 43.8811 35.7091 43.5975 33.5203C43.3224 31.3964 44.5256 29.1928 46.4452 28.1756C46.5252 28.2862 46.6104 28.3936 46.701 28.4974C45.9788 29.3236 45.5919 30.3747 45.6075 31.4803C45.6416 33.8939 47.664 35.8574 50.1157 35.8574H50.859C52.9577 35.8574 55.0848 34.7434 56.6949 32.8011C58.3392 30.8178 59.2446 28.2532 59.2446 25.5793C59.2446 22.9054 58.3392 20.3405 56.6951 18.357ZM25.3854 29.2601C25.9563 29.8545 26.2642 30.6363 26.2526 31.4617C26.2288 33.1538 24.8017 34.5303 23.0715 34.5303H22.3282C20.6259 34.5303 18.8713 33.5914 17.514 31.9542C16.0667 30.2085 15.2698 27.9445 15.2698 25.5793C15.2698 23.214 16.0667 20.95 17.5139 19.2041C18.8712 17.5665 20.6259 16.6275 22.3281 16.6275H23.0714C24.8016 16.6275 26.2288 18.0041 26.2525 19.6961C26.2641 20.5214 25.9562 21.3033 25.3854 21.8976C24.9746 22.3252 24.9748 22.9954 25.3859 23.4234C26.5422 24.6277 26.5422 26.5297 25.3859 27.7344C24.975 28.1625 24.9748 28.8327 25.3854 29.2601ZM42.6161 51.8953C41.5467 53.1436 40.0722 54.1246 38.5703 54.5866C37.9071 54.7907 37.4615 55.3965 37.4615 56.0942V58.0316C37.4615 58.524 37.0535 58.9206 36.5507 58.8985C36.0957 58.8771 35.7256 58.4688 35.7256 57.9882V56.0943C35.7256 55.3966 35.28 54.7908 34.6168 54.5868C33.1149 54.1247 31.6404 53.1436 30.571 51.8954C29.6107 50.7745 29.0971 49.5503 29.2304 48.7005C29.5089 46.9251 32.5368 45.685 36.5936 45.685C40.6504 45.685 43.6783 46.9251 43.9569 48.7005C44.0901 49.5502 43.5764 50.7744 42.6161 51.8953ZM55.6733 31.9541C54.3161 33.5913 52.5613 34.5302 50.8591 34.5302H50.1158C48.3855 34.5302 46.9585 33.1537 46.9347 31.4616C46.9231 30.6361 47.2311 29.8544 47.802 29.26C48.2125 28.8324 48.2123 28.1624 47.8013 27.7342C46.6429 26.528 46.6471 24.6255 47.8014 23.4233C48.2123 22.9954 48.2125 22.3252 47.8019 21.8974C47.2311 21.3033 46.9231 20.5214 46.9347 19.6959C46.9586 18.004 48.3855 16.6274 50.1159 16.6274H50.8591C52.5613 16.6274 54.316 17.5665 55.6733 19.204C57.1204 20.95 57.9174 23.214 57.9174 25.5793C57.9174 27.9445 57.1204 30.2085 55.6733 31.9541Z" fill="#000D44"/>
</g>
</g>
</g>
</g>
</g>
<defs>
<clipPath id="clip0_48_446">
<rect width="45.302" height="45.302" fill="white" transform="translate(13.5906 14.4878)"/>
</clipPath>
<clipPath id="clip1_48_446">
<rect width="45.302" height="45.302" fill="white" transform="translate(13.9426 15.1125)"/>
</clipPath>
<clipPath id="clip2_48_446">
<rect width="45.302" height="45.302" fill="white" transform="translate(13.9426 15.1125)"/>
</clipPath>
<clipPath id="clip3_48_446">
<rect width="45.302" height="45.302" fill="white" transform="translate(13.9426 15.1125)"/>
</clipPath>
</defs>
</svg>
